<svg width="20" height="20" viewBox="0 0 20 20" fill="none" xmlns="http://www.w3.org/2000/svg">
<g id="&#240;&#159;&#166;&#134; icon &#34;Alternate Calendar icon&#34;">
<path id="Vector" d="M6.60714 11.25H4.82143C4.52679 11.25 4.28571 11.0391 4.28571 10.7812V9.21875C4.28571 8.96094 4.52679 8.75 4.82143 8.75H6.60714C6.90179 8.75 7.14286 8.96094 7.14286 9.21875V10.7812C7.14286 11.0391 6.90179 11.25 6.60714 11.25ZM11.4286 10.7812V9.21875C11.4286 8.96094 11.1875 8.75 10.8929 8.75H9.10714C8.8125 8.75 8.57143 8.96094 8.57143 9.21875V10.7812C8.57143 11.0391 8.8125 11.25 9.10714 11.25H10.8929C11.1875 11.25 11.4286 11.0391 11.4286 10.7812ZM15.7143 10.7812V9.21875C15.7143 8.96094 15.4732 8.75 15.1786 8.75H13.3929C13.0982 8.75 12.8571 8.96094 12.8571 9.21875V10.7812C12.8571 11.0391 13.0982 11.25 13.3929 11.25H15.1786C15.4732 11.25 15.7143 11.0391 15.7143 10.7812ZM11.4286 14.5312V12.9688C11.4286 12.7109 11.1875 12.5 10.8929 12.5H9.10714C8.8125 12.5 8.57143 12.7109 8.57143 12.9688V14.5312C8.57143 14.7891 8.8125 15 9.10714 15H10.8929C11.1875 15 11.4286 14.7891 11.4286 14.5312ZM7.14286 14.5312V12.9688C7.14286 12.7109 6.90179 12.5 6.60714 12.5H4.82143C4.52679 12.5 4.28571 12.7109 4.28571 12.9688V14.5312C4.28571 14.7891 4.52679 15 4.82143 15H6.60714C6.90179 15 7.14286 14.7891 7.14286 14.5312ZM15.7143 14.5312V12.9688C15.7143 12.7109 15.4732 12.5 15.1786 12.5H13.3929C13.0982 12.5 12.8571 12.7109 12.8571 12.9688V14.5312C12.8571 14.7891 13.0982 15 13.3929 15H15.1786C15.4732 15 15.7143 14.7891 15.7143 14.5312ZM20 4.375V18.125C20 19.1602 19.0402 20 17.8571 20H2.14286C0.959821 20 0 19.1602 0 18.125V4.375C0 3.33984 0.959821 2.5 2.14286 2.5H4.28571V0.46875C4.28571 0.210938 4.52679 0 4.82143 0H6.60714C6.90179 0 7.14286 0.210938 7.14286 0.46875V2.5H12.8571V0.46875C12.8571 0.210938 13.0982 0 13.3929 0H15.1786C15.4732 0 15.7143 0.210938 15.7143 0.46875V2.5H17.8571C19.0402 2.5 20 3.33984 20 4.375ZM17.8571 17.8906V6.25H2.14286V17.8906C2.14286 18.0195 2.26339 18.125 2.41071 18.125H17.5893C17.7366 18.125 17.8571 18.0195 17.8571 17.8906Z" fill="#666666"/>
</g>
</svg>
