<svg width="16" height="16" viewBox="0 0 16 16" fill="none" xmlns="http://www.w3.org/2000/svg">
<g id="&#240;&#159;&#166;&#134; icon &#34;number circle eight&#34;">
<path id="Vector" d="M8 0C6.41775 0 4.87103 0.469192 3.55544 1.34824C2.23985 2.22729 1.21447 3.47672 0.608967 4.93853C0.00346628 6.40034 -0.15496 8.00887 0.153721 9.56072C0.462403 11.1126 1.22433 12.538 2.34315 13.6569C3.46197 14.7757 4.88743 15.5376 6.43928 15.8463C7.99113 16.155 9.59966 15.9965 11.0615 15.391C12.5233 14.7855 13.7727 13.7602 14.6518 12.4446C15.5308 11.129 16 9.58225 16 8C15.9975 5.87902 15.1539 3.84561 13.6541 2.34585C12.1544 0.846093 10.121 0.00245139 8 0ZM9.84856 11.5421C9.60565 11.7848 9.3173 11.9774 8.99997 12.1087C8.68265 12.24 8.34257 12.3075 7.99915 12.3074C7.65573 12.3073 7.3157 12.2395 6.99846 12.108C6.68122 11.9765 6.393 11.7838 6.15024 11.5409C5.90749 11.2979 5.71495 11.0096 5.58363 10.6923C5.45232 10.375 5.38479 10.0349 5.3849 9.69146C5.38501 9.34803 5.45276 9.008 5.58429 8.69076C5.71581 8.37353 5.90853 8.0853 6.15144 7.84255C6.22685 7.77316 6.30667 7.70872 6.3904 7.64964C6.38334 7.64273 6.37478 7.63799 6.36779 7.63101C6.15353 7.4167 5.9836 7.16228 5.8677 6.88228C5.7518 6.60228 5.6922 6.30219 5.69231 5.99915C5.69242 5.69611 5.75224 5.39606 5.86835 5.11615C5.98446 4.83623 6.15458 4.58193 6.36899 4.36779C7.23798 3.4976 8.76082 3.49639 9.63221 4.36899C9.84647 4.5833 10.0164 4.83772 10.1323 5.11772C10.2482 5.39772 10.3078 5.69781 10.3077 6.00085C10.3076 6.30389 10.2478 6.60394 10.1317 6.88385C10.0155 7.16377 9.84543 7.41806 9.63101 7.63221C9.6244 7.63882 9.61629 7.64325 9.6096 7.64979C9.69378 7.70916 9.774 7.77395 9.84976 7.84375C10.0926 8.08662 10.2852 8.37495 10.4166 8.69228C10.5479 9.00961 10.6155 9.34971 10.6154 9.69316C10.6153 10.0366 10.5475 10.3767 10.4159 10.6939C10.2843 11.0111 10.0916 11.2994 9.84856 11.5421ZM7.23798 6.76082C7.08747 6.6101 6.98503 6.41813 6.94362 6.20918C6.90222 6.00024 6.9237 5.78372 7.00536 5.58698C7.08702 5.39025 7.22518 5.22216 7.40238 5.10395C7.57958 4.98575 7.78785 4.92275 8.00085 4.92291C8.21386 4.92308 8.42203 4.98641 8.59904 5.1049C8.77605 5.22338 8.91395 5.39169 8.9953 5.58855C9.07664 5.78541 9.09779 6.00198 9.05605 6.21085C9.01431 6.41973 8.91157 6.61154 8.76082 6.76202C8.55569 6.95798 8.28285 7.06723 7.99916 7.06701C7.71547 7.06678 7.44281 6.9571 7.23798 6.76082ZM8.97957 8.71394C9.10809 8.84256 9.21001 8.99523 9.27951 9.16325C9.34901 9.33127 9.38473 9.51133 9.38462 9.69316C9.38451 9.87498 9.34857 10.055 9.27886 10.2229C9.20916 10.3909 9.10705 10.5434 8.97837 10.6719C8.71443 10.9234 8.36376 11.0636 7.99916 11.0634C7.63456 11.0632 7.28406 10.9225 7.02043 10.6707C6.89195 10.542 6.79007 10.3893 6.7206 10.2213C6.65112 10.0533 6.61542 9.87327 6.61553 9.69146C6.61565 9.50964 6.65157 9.32964 6.72125 9.16171C6.79093 8.99378 6.893 8.84122 7.02164 8.71274C7.15028 8.58426 7.30296 8.48237 7.47097 8.4129C7.63899 8.34343 7.81904 8.30773 8.00085 8.30784C8.18266 8.30795 8.36267 8.34387 8.5306 8.41355C8.69853 8.48323 8.85109 8.5853 8.97957 8.71394Z" fill="white"/>
</g>
</svg>
