<svg width="16" height="16" viewBox="0 0 16 16" fill="none" xmlns="http://www.w3.org/2000/svg">
<g id="&#240;&#159;&#166;&#134; icon &#34;number circle three&#34;">
<path id="Vector" d="M8 0C6.41775 0 4.87103 0.469192 3.55544 1.34824C2.23985 2.22729 1.21447 3.47672 0.608967 4.93853C0.00346628 6.40034 -0.15496 8.00887 0.153721 9.56072C0.462403 11.1126 1.22433 12.538 2.34315 13.6569C3.46197 14.7757 4.88743 15.5376 6.43928 15.8463C7.99113 16.155 9.59966 15.9965 11.0615 15.391C12.5233 14.7855 13.7727 13.7602 14.6518 12.4446C15.5308 11.129 16 9.58225 16 8C15.9976 5.879 15.154 3.84557 13.6542 2.3458C12.1544 0.846026 10.121 0.0024006 8 0ZM9.65062 11.8043C9.13129 12.3236 8.42693 12.6154 7.6925 12.6154C6.95806 12.6154 6.2537 12.3236 5.73438 11.8043C5.67723 11.7472 5.6319 11.6793 5.60097 11.6047C5.57004 11.53 5.55412 11.45 5.55412 11.3691C5.55412 11.2883 5.57004 11.2083 5.60097 11.1336C5.6319 11.059 5.67723 10.9911 5.73438 10.934C5.84979 10.8186 6.00633 10.7537 6.16955 10.7537C6.25037 10.7537 6.33039 10.7696 6.40506 10.8006C6.47973 10.8315 6.54757 10.8768 6.60472 10.934C6.78362 11.1129 7.00387 11.2449 7.24597 11.3183C7.48808 11.3917 7.74455 11.4043 7.99269 11.355C8.24082 11.3056 8.47295 11.1958 8.66852 11.0353C8.86409 10.8748 9.01705 10.6686 9.11387 10.4348C9.21068 10.2011 9.24836 9.94709 9.22356 9.69532C9.19876 9.44354 9.11225 9.20176 8.97169 8.99141C8.83113 8.78105 8.64087 8.6086 8.41774 8.48934C8.19462 8.37008 7.94553 8.30769 7.69253 8.30769C7.57997 8.30769 7.46956 8.27682 7.37332 8.21843C7.27708 8.16005 7.19869 8.07638 7.1467 7.97654C7.09471 7.8767 7.0711 7.76451 7.07844 7.65218C7.08578 7.53986 7.12379 7.43169 7.18833 7.33947L8.66429 5.23017H6.15362C5.99041 5.23017 5.83389 5.16533 5.71848 5.04993C5.60307 4.93452 5.53824 4.77799 5.53824 4.61478C5.53824 4.45157 5.60307 4.29505 5.71848 4.17964C5.83389 4.06423 5.99041 3.9994 6.15362 3.9994H9.84593C9.9585 3.99939 10.0689 4.03027 10.1651 4.08865C10.2614 4.14704 10.3398 4.23071 10.3918 4.33055C10.4438 4.43039 10.4674 4.54258 10.46 4.65491C10.4527 4.76723 10.4147 4.8754 10.3501 4.96762L8.73333 7.27832C9.15699 7.45032 9.5315 7.7245 9.82345 8.07641C10.1154 8.42832 10.3157 8.84701 10.4066 9.29515C10.4974 9.74329 10.4759 10.2069 10.344 10.6448C10.2121 11.0826 9.97388 11.4809 9.65062 11.8043Z" fill="white"/>
</g>
</svg>
