<svg width="16" height="16" viewBox="0 0 16 16" fill="none" xmlns="http://www.w3.org/2000/svg">
<g id="&#240;&#159;&#166;&#134; icon &#34;number circle five&#34;">
<path id="Vector" d="M8 0C6.41775 0 4.87103 0.469192 3.55544 1.34824C2.23985 2.22729 1.21447 3.47672 0.608967 4.93853C0.00346628 6.40034 -0.15496 8.00887 0.153721 9.56072C0.462403 11.1126 1.22433 12.538 2.34315 13.6569C3.46197 14.7757 4.88743 15.5376 6.43928 15.8463C7.99113 16.155 9.59966 15.9965 11.0615 15.391C12.5233 14.7855 13.7727 13.7602 14.6518 12.4446C15.5308 11.129 16 9.58225 16 8C15.9976 5.879 15.154 3.84557 13.6542 2.3458C12.1544 0.846026 10.121 0.0024006 8 0ZM7.68322 7.07708C8.13829 7.07812 8.58609 7.1913 8.98701 7.40661C9.38793 7.62191 9.72961 7.93271 9.98182 8.3115C10.234 8.69028 10.389 9.12539 10.433 9.57833C10.4771 10.0313 10.4088 10.4881 10.2342 10.9083C10.0597 11.3286 9.78426 11.6994 9.43231 11.9879C9.08036 12.2764 8.66273 12.4737 8.21638 12.5623C7.77003 12.651 7.3087 12.6283 6.87321 12.4962C6.43773 12.3641 6.0415 12.1268 5.71958 11.8051C5.66224 11.7481 5.6167 11.6804 5.58557 11.6058C5.55443 11.5311 5.5383 11.4511 5.53811 11.3703C5.53791 11.2894 5.55365 11.2093 5.58443 11.1345C5.61521 11.0598 5.66042 10.9918 5.71748 10.9345C5.77454 10.8772 5.84233 10.8317 5.91698 10.8007C5.99162 10.7696 6.07166 10.7535 6.15252 10.7534C6.23337 10.7533 6.31346 10.7691 6.3882 10.7999C6.46295 10.8308 6.53088 10.876 6.58812 10.9331C6.87925 11.2223 7.27295 11.3846 7.68331 11.3846C8.09366 11.3846 8.48736 11.2223 8.77847 10.9331C8.92181 10.7907 9.03557 10.6213 9.11319 10.4348C9.19082 10.2482 9.23077 10.0482 9.23077 9.84613C9.23076 9.64409 9.19079 9.44403 9.11315 9.2575C9.03551 9.07096 8.92174 8.90162 8.77839 8.75924C8.48723 8.47009 8.09354 8.30783 7.6832 8.30784C7.27286 8.30785 6.87918 8.47015 6.58804 8.75931C6.49588 8.85109 6.37702 8.91131 6.24851 8.93132C6.12 8.95134 5.98845 8.93012 5.87275 8.87072C5.75705 8.81132 5.66315 8.71678 5.60452 8.60069C5.54589 8.48459 5.52555 8.35291 5.54642 8.22453L6.14912 4.51668C6.17256 4.37247 6.24654 4.24131 6.35783 4.14665C6.46911 4.05199 6.61044 4.00001 6.75654 4H9.84616C10.0094 4 10.1659 4.06483 10.2813 4.18024C10.3967 4.29565 10.4615 4.45217 10.4615 4.61538C10.4615 4.77859 10.3967 4.93512 10.2813 5.05053C10.1659 5.16593 10.0094 5.23077 9.84616 5.23077H7.27997L6.96477 7.17007C7.19922 7.1081 7.44072 7.07684 7.68322 7.07708Z" fill="white"/>
</g>
</svg>
