<svg width="17" height="16" viewBox="0 0 17 16" fill="none" xmlns="http://www.w3.org/2000/svg">
<path id="Union" fill-rule="evenodd" clip-rule="evenodd" d="M16.4635 7.99984C16.4635 12.383 12.9103 15.9362 8.52718 15.9362C4.14405 15.9362 0.59082 12.383 0.59082 7.99984C0.59082 3.61671 4.14405 0.0634766 8.52718 0.0634766C12.9103 0.0634766 16.4635 3.61671 16.4635 7.99984ZM15.4715 7.99985C15.4715 11.8351 12.3624 14.9442 8.52719 14.9442C4.69195 14.9442 1.58287 11.8351 1.58287 7.99985C1.58287 4.1646 4.69195 1.05553 8.52719 1.05553C12.3624 1.05553 15.4715 4.1646 15.4715 7.99985ZM8.52719 13.9521C11.8145 13.9521 14.4795 11.2872 14.4795 7.99985C14.4795 4.7125 11.8145 2.04757 8.52719 2.04757C5.23984 2.04757 2.57492 4.7125 2.57492 7.99985C2.57492 11.2872 5.23984 13.9521 8.52719 13.9521Z" fill="white" fill-opacity="0.9"/>
</svg>
