<svg width="24" height="24" viewBox="0 0 24 24" fill="none" xmlns="http://www.w3.org/2000/svg">
<g id="ID ICON">
<g id="shape">
<path d="M16.5 14L12.0287 13.9444L7.5 14C5.01472 14 3.02874 17.2999 3.02874 20V22.4444H21.0287V20C21.0287 17.2999 18.9853 14 16.5 14Z" fill="#666666"/>
<path d="M12 10.7778C14.4853 10.7778 16.5 8.58895 16.5 5.88889C16.5 3.18883 14.4853 1 12 1C9.51476 1 7.50004 3.18883 7.50004 5.88889C7.50004 8.58895 9.51476 10.7778 12 10.7778Z" fill="#666666"/>
<path d="M16.5 14L12.0287 13.9444L7.5 14C5.01472 14 3.02874 17.2999 3.02874 20V22.4444H21.0287V20C21.0287 17.2999 18.9853 14 16.5 14Z" stroke="#666666" stroke-width="1.5" stroke-linecap="round" stroke-linejoin="round"/>
<path d="M12 10.7778C14.4853 10.7778 16.5 8.58895 16.5 5.88889C16.5 3.18883 14.4853 1 12 1C9.51476 1 7.50004 3.18883 7.50004 5.88889C7.50004 8.58895 9.51476 10.7778 12 10.7778Z" stroke="#666666" stroke-width="1.5" stroke-linecap="round" stroke-linejoin="round"/>
</g>
</g>
</svg>
