<svg width="16" height="16" viewBox="0 0 16 16" fill="none" xmlns="http://www.w3.org/2000/svg">
<g id="&#240;&#159;&#166;&#134; icon &#34;number circle four&#34;">
<path id="Vector" d="M8 0C6.41775 0 4.87103 0.469192 3.55544 1.34824C2.23985 2.22729 1.21447 3.47672 0.608967 4.93853C0.00346628 6.40034 -0.15496 8.00887 0.153721 9.56072C0.462403 11.1126 1.22433 12.538 2.34315 13.6569C3.46197 14.7757 4.88743 15.5376 6.43928 15.8463C7.99113 16.155 9.59966 15.9965 11.0615 15.391C12.5233 14.7855 13.7727 13.7602 14.6518 12.4446C15.5308 11.129 16 9.58225 16 8C15.9976 5.879 15.154 3.84557 13.6542 2.3458C12.1544 0.846026 10.121 0.0024006 8 0ZM10.1538 11.6923C10.1538 11.8555 10.089 12.012 9.97361 12.1274C9.8582 12.2429 9.70167 12.3077 9.53846 12.3077C9.37525 12.3077 9.21873 12.2429 9.10332 12.1274C8.98791 12.012 8.92308 11.8555 8.92308 11.6923V9.84615H5.84616C5.74774 9.84615 5.65076 9.82254 5.56335 9.77731C5.47594 9.73208 5.40065 9.66655 5.34381 9.58621C5.28696 9.50587 5.25022 9.41306 5.23665 9.31559C5.22309 9.21811 5.2331 9.1188 5.26585 9.02599L7.11185 3.79522C7.16616 3.64131 7.27939 3.51529 7.42662 3.44486C7.57385 3.37444 7.74303 3.36538 7.89693 3.41969C8.05084 3.474 8.17687 3.58723 8.24729 3.73446C8.31772 3.88169 8.32677 4.05087 8.27246 4.20478L6.7159 8.61538H8.92308V6.76923C8.92308 6.60602 8.98791 6.44949 9.10332 6.33409C9.21873 6.21868 9.37525 6.15384 9.53846 6.15384C9.70167 6.15384 9.8582 6.21868 9.97361 6.33409C10.089 6.44949 10.1538 6.60602 10.1538 6.76923V11.6923Z" fill="white"/>
</g>
</svg>
