<svg width="16" height="16" viewBox="0 0 16 16" fill="none" xmlns="http://www.w3.org/2000/svg">
<g id="&#240;&#159;&#166;&#134; icon &#34;number circle one&#34;">
<path id="Vector" d="M8 0C6.41775 0 4.87103 0.469192 3.55544 1.34824C2.23985 2.22729 1.21447 3.47672 0.608967 4.93853C0.00346628 6.40034 -0.15496 8.00887 0.153721 9.56072C0.462403 11.1126 1.22433 12.538 2.34315 13.6569C3.46197 14.7757 4.88743 15.5376 6.43928 15.8463C7.99113 16.155 9.59966 15.9965 11.0615 15.391C12.5233 14.7855 13.7727 13.7602 14.6518 12.4446C15.5308 11.129 16 9.58225 16 8C15.9976 5.879 15.154 3.84557 13.6542 2.3458C12.1544 0.846026 10.121 0.0024006 8 0ZM8.92308 11.6923C8.92308 11.8555 8.85824 12.012 8.74284 12.1274C8.62743 12.2429 8.4709 12.3077 8.30769 12.3077C8.14448 12.3077 7.98796 12.2429 7.87255 12.1274C7.75714 12.012 7.69231 11.8555 7.69231 11.6923V5.76495L6.80281 6.35772C6.73556 6.40266 6.66012 6.4339 6.58079 6.44966C6.50146 6.46542 6.4198 6.46538 6.34048 6.44956C6.26117 6.43373 6.18575 6.40243 6.11854 6.35743C6.05133 6.31244 5.99365 6.25463 5.9488 6.18733C5.90394 6.12003 5.8728 6.04454 5.85714 5.96519C5.84149 5.88584 5.84162 5.80418 5.85755 5.72489C5.87348 5.64559 5.90488 5.57021 5.94996 5.50306C5.99504 5.43591 6.05291 5.3783 6.12027 5.33353L7.96643 4.10329C8.05911 4.04154 8.16681 4.00609 8.27806 4.00073C8.3893 3.99537 8.49991 4.0203 8.5981 4.07286C8.69629 4.12542 8.77838 4.20365 8.83561 4.29919C8.89284 4.39473 8.92307 4.50401 8.92308 4.61538V11.6923Z" fill="white"/>
</g>
</svg>
