<svg width="16" height="16" viewBox="0 0 16 16" fill="none" xmlns="http://www.w3.org/2000/svg">
<g id="&#240;&#159;&#166;&#134; icon &#34;number circle seven&#34;">
<path id="Vector" d="M8 0C6.41775 0 4.87103 0.469192 3.55544 1.34824C2.23985 2.22729 1.21447 3.47672 0.608967 4.93853C0.00346628 6.40034 -0.15496 8.00887 0.153721 9.56072C0.462403 11.1126 1.22433 12.538 2.34315 13.6569C3.46197 14.7757 4.88743 15.5376 6.43928 15.8463C7.99113 16.155 9.59966 15.9965 11.0615 15.391C12.5233 14.7855 13.7727 13.7602 14.6518 12.4446C15.5308 11.129 16 9.58225 16 8C15.9976 5.879 15.154 3.84557 13.6542 2.3458C12.1544 0.846026 10.121 0.0024006 8 0ZM10.43 4.81002L7.96845 12.1946C7.94295 12.2714 7.90258 12.3423 7.84963 12.4035C7.79669 12.4646 7.73222 12.5147 7.6599 12.5509C7.58759 12.5871 7.50884 12.6087 7.42818 12.6144C7.34751 12.6202 7.26651 12.61 7.18979 12.5844C7.11307 12.5588 7.04214 12.5184 6.98106 12.4654C6.91999 12.4124 6.86995 12.3479 6.83383 12.2755C6.7977 12.2032 6.77619 12.1244 6.77052 12.0437C6.76485 11.9631 6.77513 11.8821 6.80078 11.8054L8.99234 5.23077H6.15385C5.99064 5.23077 5.83411 5.16593 5.71871 5.05053C5.6033 4.93512 5.53846 4.77859 5.53846 4.61538C5.53846 4.45217 5.6033 4.29565 5.71871 4.18024C5.83411 4.06483 5.99064 4 6.15385 4H9.84616C9.94367 4 10.0398 4.02317 10.1266 4.0676C10.2134 4.11203 10.2884 4.17646 10.3454 4.25557C10.4024 4.33467 10.4398 4.4262 10.4545 4.5226C10.4692 4.619 10.4608 4.71751 10.43 4.81002Z" fill="white"/>
</g>
</svg>
