<svg width="16" height="16" viewBox="0 0 16 16" fill="none" xmlns="http://www.w3.org/2000/svg">
<g id="&#240;&#159;&#166;&#134; icon &#34;number circle six&#34;">
<path id="Vector" d="M9.53846 9.23077C9.53846 9.53505 9.44823 9.83249 9.27919 10.0855C9.11014 10.3385 8.86986 10.5357 8.58875 10.6521C8.30763 10.7686 7.99829 10.799 7.69986 10.7397C7.40143 10.6803 7.1273 10.5338 6.91215 10.3186C6.69699 10.1035 6.55046 9.82934 6.4911 9.53091C6.43174 9.23247 6.46221 8.92314 6.57865 8.64202C6.69509 8.36091 6.89228 8.12063 7.14528 7.95158C7.39828 7.78253 7.69572 7.69231 8 7.69231C8.40789 7.69276 8.79894 7.85499 9.08736 8.14341C9.37578 8.43183 9.53801 8.82288 9.53846 9.23077ZM16 8C16 9.58225 15.5308 11.129 14.6518 12.4446C13.7727 13.7602 12.5233 14.7855 11.0615 15.391C9.59966 15.9965 7.99113 16.155 6.43928 15.8463C4.88743 15.5376 3.46197 14.7757 2.34315 13.6569C1.22433 12.538 0.462403 11.1126 0.153721 9.56072C-0.15496 8.00887 0.00346628 6.40034 0.608967 4.93853C1.21447 3.47672 2.23985 2.22729 3.55544 1.34824C4.87103 0.469192 6.41775 0 8 0C10.121 0.0024006 12.1544 0.846026 13.6542 2.3458C15.154 3.84557 15.9976 5.879 16 8ZM10.7692 9.23077C10.7684 8.49658 10.4764 7.79269 9.95723 7.27354C9.43808 6.75439 8.73419 6.46236 8 6.46154C7.95298 6.46154 7.90623 6.46273 7.85975 6.46511L9.14371 4.31558C9.18515 4.2462 9.21252 4.16934 9.22426 4.08938C9.23599 4.00942 9.23187 3.92793 9.21211 3.84957C9.19236 3.77121 9.15736 3.6975 9.10912 3.63266C9.06088 3.56782 9.00035 3.51312 8.93097 3.47168C8.86159 3.43024 8.78472 3.40286 8.70477 3.39113C8.62481 3.37939 8.54332 3.38352 8.46496 3.40327C8.38659 3.42303 8.31289 3.45802 8.24805 3.50626C8.18321 3.5545 8.12851 3.61504 8.08707 3.68442L5.60637 7.83744C5.59779 7.85179 5.59039 7.86651 5.58313 7.88127C5.37686 8.25062 5.25798 8.66233 5.2356 9.08478C5.21322 9.50723 5.28794 9.92919 5.45403 10.3183C5.62012 10.7073 5.87315 11.0532 6.19371 11.3292C6.51426 11.6053 6.89382 11.8042 7.30323 11.9108C7.71264 12.0173 8.14101 12.0286 8.55547 11.9438C8.96993 11.859 9.35944 11.6804 9.69411 11.4216C10.0288 11.1628 10.2997 10.8308 10.4861 10.451C10.6724 10.0712 10.7693 9.65381 10.7692 9.23077Z" fill="white"/>
</g>
</svg>
