<svg width="16" height="16" viewBox="0 0 16 16" fill="none" xmlns="http://www.w3.org/2000/svg">
<g id="&#240;&#159;&#166;&#134; icon &#34;number circle two&#34;">
<path id="Vector" d="M8 0C6.41775 0 4.87103 0.469192 3.55544 1.34824C2.23985 2.22729 1.21447 3.47672 0.608967 4.93853C0.00346628 6.40034 -0.15496 8.00887 0.153721 9.56072C0.462403 11.1126 1.22433 12.538 2.34315 13.6569C3.46197 14.7757 4.88743 15.5376 6.43928 15.8463C7.99113 16.155 9.59966 15.9965 11.0615 15.391C12.5233 14.7855 13.7727 13.7602 14.6518 12.4446C15.5308 11.129 16 9.58225 16 8C15.9976 5.879 15.154 3.84557 13.6542 2.3458C12.1544 0.846026 10.121 0.0024006 8 0ZM9.84616 11.0765C10.0094 11.0765 10.1659 11.1413 10.2813 11.2567C10.3967 11.3721 10.4615 11.5286 10.4615 11.6919C10.4615 11.8551 10.3967 12.0116 10.2813 12.127C10.1659 12.2424 10.0094 12.3072 9.84616 12.3072H6.17826C6.17007 12.3075 6.16189 12.3078 6.15377 12.3078C6.03843 12.3077 5.92543 12.2752 5.82764 12.2141C5.72985 12.1529 5.65121 12.0655 5.60068 11.9618C5.55015 11.8581 5.52977 11.7423 5.54185 11.6276C5.55393 11.5129 5.598 11.4039 5.66902 11.313L9.02847 6.83031C9.12243 6.68734 9.18556 6.52636 9.21384 6.35763C9.24211 6.1889 9.23491 6.01613 9.19269 5.85034C9.15047 5.68455 9.07416 5.52939 8.96862 5.39473C8.86309 5.26008 8.73064 5.14891 8.57975 5.0683C8.42885 4.98769 8.2628 4.93942 8.0922 4.92656C7.92161 4.9137 7.7502 4.93654 7.58893 4.99362C7.42765 5.0507 7.28004 5.14077 7.15552 5.25808C7.03099 5.37539 6.93228 5.51737 6.86569 5.67496C6.83421 5.74939 6.78838 5.81689 6.73081 5.87361C6.67324 5.93033 6.60507 5.97515 6.53018 6.00552C6.45529 6.03589 6.37515 6.05122 6.29434 6.05062C6.21353 6.05002 6.13363 6.03351 6.0592 6.00203C5.98476 5.97055 5.91726 5.92472 5.86054 5.86715C5.80383 5.80959 5.759 5.74141 5.72863 5.66652C5.69826 5.59163 5.68293 5.51149 5.68353 5.43068C5.68413 5.34987 5.70064 5.26997 5.73212 5.19554C5.86581 4.8793 6.06416 4.59452 6.31445 4.35949C6.56473 4.12447 6.8614 3.94439 7.18541 3.83083C7.50942 3.71727 7.8536 3.67274 8.19585 3.7001C8.53809 3.72745 8.87082 3.82609 9.17268 3.98968C9.47454 4.15327 9.73884 4.37819 9.94861 4.64999C10.1584 4.92179 10.309 5.23446 10.3907 5.56792C10.4725 5.90138 10.4836 6.24825 10.4233 6.58625C10.3631 6.92426 10.2328 7.24592 10.0408 7.53057C10.0352 7.53891 10.0294 7.5471 10.0233 7.55514L7.38439 11.0765L9.84616 11.0765Z" fill="white"/>
</g>
</svg>
