<svg width="16" height="16" viewBox="0 0 16 16" fill="none" xmlns="http://www.w3.org/2000/svg">
<g id="&#240;&#159;&#166;&#134; icon &#34;file list 3 line&#34;">
<path id="Vector" d="M12.6667 14.6666H3.33337C2.80294 14.6666 2.29423 14.4559 1.91916 14.0808C1.54409 13.7057 1.33337 13.197 1.33337 12.6666V1.99992C1.33337 1.82311 1.40361 1.65354 1.52864 1.52851C1.65366 1.40349 1.82323 1.33325 2.00004 1.33325H11.3334C11.5102 1.33325 11.6798 1.40349 11.8048 1.52851C11.9298 1.65354 12 1.82311 12 1.99992V9.99992H14.6667V12.6666C14.6667 13.197 14.456 13.7057 14.0809 14.0808C13.7058 14.4559 13.1971 14.6666 12.6667 14.6666ZM12 11.3333V12.6666C12 12.8434 12.0703 13.013 12.1953 13.138C12.3203 13.263 12.4899 13.3333 12.6667 13.3333C12.8435 13.3333 13.0131 13.263 13.1381 13.138C13.2631 13.013 13.3334 12.8434 13.3334 12.6666V11.3333H12ZM10.6667 13.3333V2.66659H2.66671V12.6666C2.66671 12.8434 2.73695 13.013 2.86197 13.138C2.98699 13.263 3.15656 13.3333 3.33337 13.3333H10.6667ZM4.00004 4.66659H9.33337V5.99992H4.00004V4.66659ZM4.00004 7.33325H9.33337V8.66659H4.00004V7.33325ZM4.00004 9.99992H7.33337V11.3333H4.00004V9.99992Z" fill="#666666"/>
</g>
</svg>
